HIERARCHY
ROOT Hips
{
  OFFSET 5.80788e-005 67.184 3.4734
  CHANNELS 6 Xposition Yposition Zposition Zrotation Xrotation Yrotation
  JOINT Chest
  {
    OFFSET 0 8.7983 -4.7612
    CHANNELS 3 Zrotation Xrotation Yrotation
    JOINT Chest2
    {
      OFFSET 0 8.0291 0.4195
      CHANNELS 3 Zrotation Xrotation Yrotation
      JOINT Chest3
      {
        OFFSET 0 9.9351 -2.2114
        CHANNELS 3 Zrotation Xrotation Yrotation
        JOINT Neck
        {
          OFFSET 0 22.3885 -0.4656
          CHANNELS 3 Zrotation Xrotation Yrotation
          JOINT Head
          {
            OFFSET -0.0001 12.643 3.4389
            CHANNELS 3 Zrotation Xrotation Yrotation
            End Site
            {
              OFFSET 0.0001 17.6655 0.5274
            }
          }
        }
        JOINT LeftCollar
        {
          OFFSET 2.2603 21.606 7.4023
          CHANNELS 3 Zrotation Xrotation Yrotation
          JOINT LeftShoulder
          {
            OFFSET 13.5163 -1.1332 -5.0146
            CHANNELS 3 Zrotation Xrotation Yrotation
            JOINT LeftElbow
            {
              OFFSET -0.0995 -28.05 -0.2431
              CHANNELS 3 Zrotation Xrotation Yrotation
              JOINT LeftWrist
              {
                OFFSET 0.0679 -23.3996 -0.1402
                CHANNELS 3 Zrotation Xrotation Yrotation
                JOINT LeftFinger1
                {
                  OFFSET 0.7932 -9.069 2.5189
                  CHANNELS 3 Zrotation Xrotation Yrotation
                  JOINT LeftFinger11
                  {
                    OFFSET -0.8272 -3.3923 0.5977
                    CHANNELS 3 Zrotation Xrotation Yrotation
                    JOINT LeftFinger12
                    {
                      OFFSET -0.5649 -2.3158 0.4082
                      CHANNELS 3 Zrotation Xrotation Yrotation
                      End Site
                      {
                        OFFSET -0.4919 -1.6479 0.2673
                      }
                    }
                  }
                }
                JOINT LeftFinger2
                {
                  OFFSET 0.9159 -9.2044 0.2193
                  CHANNELS 3 Zrotation Xrotation Yrotation
                  JOINT LeftFinger21
                  {
                    OFFSET 0.0117 -4.1944 -0.0248
                    CHANNELS 3 Zrotation Xrotation Yrotation
                    JOINT LeftFinger22
                    {
                      OFFSET 0.0071 -2.3249 -0.0142
                      CHANNELS 3 Zrotation Xrotation Yrotation
                      End Site
                      {
                        OFFSET -0.1475 -2.0882 0.0028
                      }
                    }
                  }
                }
                JOINT LeftFinger3
                {
                  OFFSET 0.6113 -8.7231 -2.0637
                  CHANNELS 3 Zrotation Xrotation Yrotation
                  JOINT LeftFinger31
                  {
                    OFFSET -0.1927 -3.8059 -0.2383
                    CHANNELS 3 Zrotation Xrotation Yrotation
                    JOINT LeftFinger32
                    {
                      OFFSET -0.1091 -2.1688 -0.1362
                      CHANNELS 3 Zrotation Xrotation Yrotation
                      End Site
                      {
                        OFFSET -0.2358 -1.9176 -0.0906
                      }
                    }
                  }
                }
                JOINT LeftFinger4
                {
                  OFFSET -0.6151 -8.0947 -3.5641
                  CHANNELS 3 Zrotation Xrotation Yrotation
                  JOINT LeftFinger41
                  {
                    OFFSET -0.4882 -2.341 -0.6462
                    CHANNELS 3 Zrotation Xrotation Yrotation
                    JOINT LeftFinger42
                    {
                      OFFSET -0.3575 -1.7167 -0.4742
                      CHANNELS 3 Zrotation Xrotation Yrotation
                      End Site
                      {
                        OFFSET -0.4187 -1.5237 -0.3496
                      }
                    }
                  }
                }
                JOINT LeftFinger0
                {
                  OFFSET -1.42 -1.8761 1.4223
                  CHANNELS 3 Zrotation Xrotation Yrotation
                  JOINT LeftFinger01
                  {
                    OFFSET -1.1471 -3.4929 2.6334
                    CHANNELS 3 Zrotation Xrotation Yrotation
                    JOINT LeftFinger02
                    {
                      OFFSET -0.823 -2.3 1.6571
                      CHANNELS 3 Zrotation Xrotation Yrotation
                      End Site
                      {
                        OFFSET -0.5822 -1.6914 1.1582
                      }
                    }
                  }
                }
              }
            }
          }
        }
        JOINT RightCollar
        {
          OFFSET -2.2603 21.606 7.4023
          CHANNELS 3 Zrotation Xrotation Yrotation
          JOINT RightShoulder
          {
            OFFSET -13.5187 -1.1334 -5.0155
            CHANNELS 3 Zrotation Xrotation Yrotation
            JOINT RightElbow
            {
              OFFSET 0.0994 -28.0499 -0.2431
              CHANNELS 3 Zrotation Xrotation Yrotation
              JOINT RightWrist
              {
                OFFSET -0.0679 -23.3996 -0.1402
                CHANNELS 3 Zrotation Xrotation Yrotation
                JOINT RightFinger1
                {
                  OFFSET -0.7932 -9.0691 2.5189
                  CHANNELS 3 Zrotation Xrotation Yrotation
                  JOINT RightFinger11
                  {
                    OFFSET 0.8272 -3.3923 0.5977
                    CHANNELS 3 Zrotation Xrotation Yrotation
                    JOINT RightFinger12
                    {
                      OFFSET 0.565 -2.3158 0.4082
                      CHANNELS 3 Zrotation Xrotation Yrotation
                      End Site
                      {
                        OFFSET 0.4919 -1.6479 0.2673
                      }
                    }
                  }
                }
                JOINT RightFinger2
                {
                  OFFSET -0.916 -9.2044 0.2193
                  CHANNELS 3 Zrotation Xrotation Yrotation
                  JOINT RightFinger21
                  {
                    OFFSET -0.0117 -4.1944 -0.0248
                    CHANNELS 3 Zrotation Xrotation Yrotation
                    JOINT RightFinger22
                    {
                      OFFSET -0.0071 -2.3249 -0.0142
                      CHANNELS 3 Zrotation Xrotation Yrotation
                      End Site
                      {
                        OFFSET 0.1475 -2.0882 0.0028
                      }
                    }
                  }
                }
                JOINT RightFinger3
                {
                  OFFSET -0.6113 -8.7231 -2.0637
                  CHANNELS 3 Zrotation Xrotation Yrotation
                  JOINT RightFinger31
                  {
                    OFFSET 0.1927 -3.8059 -0.2383
                    CHANNELS 3 Zrotation Xrotation Yrotation
                    JOINT RightFinger32
                    {
                      OFFSET 0.1091 -2.1688 -0.1362
                      CHANNELS 3 Zrotation Xrotation Yrotation
                      End Site
                      {
                        OFFSET 0.2358 -1.9176 -0.0906
                      }
                    }
                  }
                }
                JOINT RightFinger4
                {
                  OFFSET 0.6151 -8.0947 -3.564
                  CHANNELS 3 Zrotation Xrotation Yrotation
                  JOINT RightFinger41
                  {
                    OFFSET 0.4882 -2.341 -0.6462
                    CHANNELS 3 Zrotation Xrotation Yrotation
                    JOINT RightFinger42
                    {
                      OFFSET 0.3574 -1.7166 -0.4742
                      CHANNELS 3 Zrotation Xrotation Yrotation
                      End Site
                      {
                        OFFSET 0.4187 -1.5237 -0.3496
                      }
                    }
                  }
                }
                JOINT RightFinger0
                {
                  OFFSET 1.4199 -1.8761 1.4221
                  CHANNELS 3 Zrotation Xrotation Yrotation
                  JOINT RightFinger01
                  {
                    OFFSET 1.1472 -3.4929 2.6336
                    CHANNELS 3 Zrotation Xrotation Yrotation
                    JOINT RightFinger02
                    {
                      OFFSET 0.8229 -2.3 1.6571
                      CHANNELS 3 Zrotation Xrotation Yrotation
                      End Site
                      {
                        OFFSET 0.5822 -1.6914 1.1582
                      }
                    }
                  }
                }
              }
            }
          }
        }
      }
    }
  }
  JOINT RightHip
  {
    OFFSET -9.412 3.9771 -0.7758
    CHANNELS 3 Zrotation Xrotation Yrotation
    JOINT RightKnee
    {
      OFFSET -0.7531 -40.938 0
      CHANNELS 3 Zrotation Xrotation Yrotation
      JOINT RightAnkle
      {
        OFFSET 0 -40.1986 0
        CHANNELS 3 Zrotation Xrotation Yrotation
        JOINT RightToe
        {
          OFFSET 0 -4.4182 9.239
          CHANNELS 3 Zrotation Xrotation Yrotation
          End Site
          {
            OFFSET 0 0 6.1981
          }
        }
      }
    }
  }
  JOINT LeftHip
  {
    OFFSET 9.4119 3.9773 -0.7758
    CHANNELS 3 Zrotation Xrotation Yrotation
    JOINT LeftKnee
    {
      OFFSET 0.7532 -40.9383 0
      CHANNELS 3 Zrotation Xrotation Yrotation
      JOINT LeftAnkle
      {
        OFFSET 0 -40.1986 0
        CHANNELS 3 Zrotation Xrotation Yrotation
        JOINT LeftToe
        {
          OFFSET 0 -4.4182 9.239
          CHANNELS 3 Zrotation Xrotation Yrotation
          End Site
          {
            OFFSET 0 0 6.1981
          }
        }
      }
    }
  }
}
MOTION
Frames:	4
Frame Time:	0.0333333
39.8687 9.34589 23.8323 179.997 58.9947 6.27202e-009 -0.0319501 9.85924 -0.0819833 -0.050477 19.7186 -0.161976 -0.050477 19.7186 -0.161976 3.62363e-007 13.9968 1.8691e-006 -8.86472e-008 0.134643 -1.4972e-007 -15.4535 -6.91576 -13.831 71.4478 15.8491 -40.9396 -4.06037 -14.5269 -37.4178 2.8121 1.65522 -2.19787 5.96354e-016 -1.27222e-014 -0 -1.19742e-006 1.32836e-007 -1.21499e-006 -7.95139e-016 -9.54166e-015 -0 5.96354e-016 -1.27222e-014 -0 -0.0128185 0.0023299 8.2261e-005 -5.96354e-016 0 -7.95139e-016 5.96354e-016 -1.27222e-014 -0 -0.0160396 0.00299343 0.000847436 -9.69136e-006 -2.88708e-006 4.76181e-006 5.96354e-016 -1.27222e-014 -0 -0.012598 0.00312267 0.00282115 -2.20695e-032 3.18055e-015 3.97569e-016 5.96354e-016 -1.27222e-014 -0 -1.19742e-006 1.32836e-007 -1.21499e-006 -7.95139e-016 -9.54166e-015 -0 14.3742 -6.80086 8.34131 -72.6158 10.9162 42.9095 3.34857 -15.4441 37.0453 -2.82113 1.58157 2.16069 1.16118e-006 -1.97814e-008 1.25067e-006 -8.74989e-006 -3.44148e-006 5.64129e-006 6.86306e-026 -1.97814e-008 1.98785e-016 1.16118e-006 -1.97814e-008 1.25067e-006 0.0129667 0.00232428 -8.35724e-005 -8.94531e-015 -6.36111e-015 9.14409e-015 1.16118e-006 -1.97814e-008 1.25067e-006 0.0163313 0.00303729 -0.000871644 -6.42895e-006 1.28144e-006 8.14233e-006 1.16118e-006 -1.97814e-008 1.25067e-006 0.0145675 0.00367778 -0.00325318 -1.80564e-007 -4.81377e-006 4.8251e-006 1.16118e-006 -1.97814e-008 1.25067e-006 -8.74989e-006 -3.44148e-006 5.64129e-006 6.86306e-026 -1.97814e-008 1.98785e-016 -30.7261 -59.0206 -63.7436 -131.425 37.6526 144.43 -7.01988 -11.699 -5.12222 -6.29289e-007 -2.77855e-009 2.60097e-007 45.3297 -66.5042 76.7562 136.345 39.8978 -127.592 23.4833 -12.8848 11.5427 3.18055e-015 0 3.77691e-015 
39.868 9.34444 23.8762 179.997 58.9947 -5.05809e-009 -0.0315364 9.73548 -0.0821989 -0.0497613 19.471 -0.162473 -0.0497613 19.4711 -0.162473 2.88519e-007 13.9968 1.67135e-006 -4.43767e-010 0.134639 -1.25846e-007 -16.389 -6.78178 -13.7567 72.2014 15.8852 -41.1025 -3.90876 -14.1152 -37.3661 2.73285 1.42036 -2.6188 1.98785e-016 0 -3.97569e-016 1.98785e-016 3.18055e-015 -0 2.20695e-032 3.18055e-015 -3.97569e-016 1.98785e-016 0 -3.97569e-016 -0.012821 0.00231892 8.23816e-005 -0 -3.18055e-015 -0 1.98785e-016 0 -3.97569e-016 -0.0160455 0.00298597 0.000849508 9.7118e-007 -1.37206e-006 1.0121e-006 1.98785e-016 0 -3.97569e-016 -0.012611 0.00311193 0.0028295 -9.71591e-007 1.95615e-007 -1.01234e-006 1.98785e-016 0 -3.97569e-016 1.98785e-016 3.18055e-015 -0 2.20695e-032 3.18055e-015 -3.97569e-016 15.2995 -6.66685 8.27199 -73.3545 10.9332 43.0047 3.20009 -15.0354 37.0025 -2.74995 1.33952 2.5805 2.24127e-006 -4.93038e-006 2.42202e-006 1.10348e-032 -3.18055e-015 1.98785e-016 -2.24127e-006 4.91073e-006 -2.42202e-006 2.24127e-006 -4.93038e-006 2.42202e-006 0.0129487 0.00231825 -9.07893e-005 3.97569e-016 3.18055e-015 1.98785e-016 2.24127e-006 -4.93038e-006 2.42202e-006 0.0163362 0.0030384 -0.000879911 -4.41391e-032 6.36111e-015 3.97569e-016 2.24127e-006 -4.93038e-006 2.42202e-006 0.0145955 0.00367319 -0.00327083 3.97569e-016 0 1.98785e-016 2.24127e-006 -4.93038e-006 2.42202e-006 1.10348e-032 -3.18055e-015 1.98785e-016 -2.24127e-006 4.91073e-006 -2.42202e-006 -30.4933 -58.8444 -63.5713 -131.142 37.787 144.297 -7.02022 -11.6352 -5.21647 2.6407e-007 6.63393e-006 1.40307e-006 45.0036 -66.3277 76.4149 136.14 40.0252 -127.472 23.4823 -12.8708 11.5401 4.90944e-006 -1.05367e-006 6.30849e-006 
39.8674 9.34301 23.92 179.997 58.9947 -1.51743e-008 -0.0311239 9.61179 -0.0824115 -0.04905 19.2236 -0.162961 -0.04905 19.2237 -0.162961 2.21372e-007 13.9968 1.63287e-006 4.80512e-009 0.134647 -5.94749e-008 -17.3241 -6.6491 -13.6802 72.9549 15.9189 -41.2659 -3.75789 -13.7032 -37.3156 2.65187 1.18612 -3.03999 7.44891e-006 2.55177e-006 2.66124e-006 -7.44891e-006 -2.55177e-006 -2.66124e-006 1.10428e-005 1.4031e-006 6.30458e-006 7.44891e-006 2.55177e-006 2.66124e-006 -0.0128237 0.00233015 8.78284e-005 -3.97569e-016 0 -0 7.44891e-006 2.55177e-006 2.66124e-006 -0.0160484 0.00299803 0.000860321 -9.69886e-007 1.97128e-007 -1.01259e-006 7.44891e-006 2.55177e-006 2.66124e-006 -0.0126029 0.00311636 0.00283053 1.98785e-016 6.36111e-015 -7.95139e-016 7.44891e-006 2.55177e-006 2.66124e-006 -7.44891e-006 -2.55177e-006 -2.66124e-006 1.10428e-005 1.4031e-006 6.30458e-006 16.2244 -6.53404 8.20055 -74.0931 10.9491 43.1 3.05216 -14.6268 36.9609 -2.67697 1.09799 3.00053 -3.97569e-016 9.54166e-015 -3.97569e-016 1.98785e-016 9.54166e-015 -3.97569e-016 -1.50444e-006 -5.78875e-006 3.41826e-006 -3.97569e-016 9.54166e-015 -3.97569e-016 0.0129557 0.00231051 -8.68496e-005 1.98785e-016 3.18055e-015 5.96354e-016 -3.97569e-016 9.54166e-015 -3.97569e-016 0.0163257 0.00302723 -0.000865473 -1.24509e-006 3.90629e-006 -1.32854e-006 -3.97569e-016 9.54166e-015 -3.97569e-016 0.0145805 0.00367375 -0.00325989 1.07842e-006 1.39176e-006 1.17192e-006 -3.97569e-016 9.54166e-015 -3.97569e-016 1.98785e-016 9.54166e-015 -3.97569e-016 -1.50444e-006 -5.78875e-006 3.41826e-006 -30.2675 -58.6667 -63.4034 -130.857 37.9205 144.163 -7.02047 -11.5715 -5.31066 9.81389e-007 9.13038e-006 1.61065e-006 44.6849 -66.1502 76.0807 135.934 40.1516 -127.353 23.4814 -12.8569 11.5376 6.36111e-015 -1.97459e-007 2.18663e-015 
39.8667 9.34156 23.9639 179.997 58.9947 -1.78045e-008 -0.0307123 9.48815 -0.0826211 -0.0483431 18.9764 -0.163442 -0.0483433 18.9764 -0.163442 2.0752e-007 13.9968 1.92465e-006 -3.02959e-008 0.134638 -7.97929e-008 -18.2586 -6.51774 -13.6016 73.7085 15.9508 -41.4297 -3.60764 -13.2911 -37.2664 2.56921 0.952501 -3.46142 -6.62086e-032 9.54166e-015 3.97569e-016 -7.48495e-006 -2.73478e-006 2.16891e-006 1.2319e-006 -4.65065e-006 -3.61341e-006 -6.62086e-032 9.54166e-015 3.97569e-016 -0.0128186 0.00232834 8.24319e-005 -7.95139e-016 -3.18055e-015 -3.97569e-016 -6.62086e-032 9.54166e-015 3.97569e-016 -0.0160297 0.00300276 0.00085481 3.97569e-016 6.36111e-015 -0 -6.62086e-032 9.54166e-015 3.97569e-016 -0.0125935 0.00311403 0.0028285 8.45542e-006 1.307e-006 -1.15596e-006 -6.62086e-032 9.54166e-015 3.97569e-016 -7.48495e-006 -2.73478e-006 2.16891e-006 1.2319e-006 -4.65065e-006 -3.61341e-006 17.1488 -6.40247 8.12702 -74.8314 10.9635 43.1956 2.90491 -14.2179 36.9205 -2.60228 0.857048 3.42079 3.97569e-016 0 1.98785e-016 5.96354e-016 0 5.96354e-016 1.0169e-005 5.62715e-006 -9.14698e-006 3.97569e-016 0 1.98785e-016 0.0129603 0.00230953 -8.61821e-005 4.00738e-006 -2.85097e-007 -5.7448e-006 3.97569e-016 0 1.98785e-016 0.0163387 0.00304083 -0.00087166 2.60758e-007 2.22896e-006 -4.74707e-006 3.97569e-016 0 1.98785e-016 0.0145808 0.00367008 -0.00326328 5.26225e-006 3.20768e-006 -9.39864e-006 3.97569e-016 0 1.98785e-016 5.96354e-016 0 5.96354e-016 1.0169e-005 5.62715e-006 -9.14698e-006 -29.911 -58.5149 -63.125 -130.595 38.0854 143.978 -7.02065 -11.5079 -5.40486 -5.26813e-007 -8.99832e-007 2.89763e-007 44.3671 -65.9721 75.7479 135.728 40.2786 -127.231 23.4804 -12.8431 11.535 3.32612e-007 -8.63896e-007 -1.60592e-006 
